{
  "asset": {
    "version": "2.0",
    "generator": "THREE.GLTFExporter"
  },
  "scenes": [
    {
      "nodes": [
        0
      ]
    }
  ],
  "scene": 0,
  "nodes": [
    {
      "children": [
        6
      ],
      "matrix": [
        0.01,
        0,
        0,
        0,
        0,
        0.01,
        0,
        0,
        0,
        0,
        0.01,
        0,
        0,
        0,
        0,
        1
      ]
    },
    {
      "matrix": [
        1,
        0,
        0,
        0,
        0,
        1,
        0,
        0,
        0,
        0,
        1,
        0,
        78.22556336141966,
        52.51733616966735,
        1066.3512783472697,
        1
      ],
      "name": "Camera",
      "camera": 0
    },
    {
      "matrix": [
        1,
        0,
        0,
        0,
        0,
        1,
        0,
        0,
        0,
        0,
        5.053477445242769,
        0,
        74.61873141742379,
        49.33715233828571,
        5.141058945439003,
        1
      ],
      "name": "Text",
      "mesh": 0
    },
    {
      "matrix": [
        0.6094263227516558,
        -0.3586078040664966,
        -0.7071067811865475,
        0,
        0.507148020083673,
        0.8618589709025546,
        0,
        0,
        0.6094263227516556,
        -0.35860780406649656,
        0.7071067811865476,
        0,
        0,
        0,
        0,
        1
      ],
      "name": "Directional Light",
      "extensions": {
        "KHR_lights_punctual": {
          "light": 0
        }
      }
    },
    {
      "matrix": [
        1,
        0,
        0,
        0,
        0,
        1,
        0,
        0,
        0,
        0,
        1,
        0,
        73.85229919012093,
        50.67037584366261,
        1066.3512783472704,
        1
      ],
      "name": "Personal Camera",
      "camera": 1
    },
    {
      "matrix": [
        1,
        0,
        0,
        0,
        0,
        1,
        0,
        0,
        0,
        0,
        1,
        0,
        0,
        1,
        0,
        1
      ],
      "name": "Default Ambient Light"
    },
    {
      "name": "Scene 1",
      "children": [
        1,
        2,
        3,
        4,
        5
      ]
    }
  ],
  "cameras": [
    {
      "type": "orthographic",
      "orthographic": {
        "xmag": 2.803978977160369,
        "ymag": 1.3710719934969913,
        "zfar": 100000,
        "znear": 0
      },
      "name": "Camera"
    },
    {
      "type": "orthographic",
      "orthographic": {
        "xmag": 8.66673339046875,
        "ymag": 4.237804749453125,
        "zfar": 100000,
        "znear": 0
      },
      "name": "Camera"
    }
  ],
  "bufferViews": [
    {
      "buffer": 0,
      "byteOffset": 0,
      "byteLength": 114144,
      "target": 34962,
      "byteStride": 12
    },
    {
      "buffer": 0,
      "byteOffset": 114144,
      "byteLength": 114144,
      "target": 34962,
      "byteStride": 12
    },
    {
      "buffer": 0,
      "byteOffset": 228288,
      "byteLength": 76096,
      "target": 34962,
      "byteStride": 8
    },
    {
      "buffer": 0,
      "byteOffset": 304384,
      "byteLength": 56760,
      "target": 34963
    }
  ],
  "buffers": [
    {
      "byteLength": 361144,
      "uri": "data:application/octet-stream;base64,"
    }
  ],
  "accessors": [
    {
      "bufferView": 0,
      "componentType": 5126,
      "count": 9512,
      "max": [
        107.53999328613281,
        37.334999084472656,
        4.247289657592773
      ],
      "min": [
        -108.48999786376953,
        -36.480003356933594,
        0
      ],
      "type": "VEC3"
    },
    {
      "bufferView": 1,
      "componentType": 5126,
      "count": 9512,
      "max": [
        0.9999297261238098,
        1,
        1
      ],
      "min": [
        -1,
        -1,
        -1
      ],
      "type": "VEC3"
    },
    {
      "bufferView": 2,
      "componentType": 5126,
      "count": 9512,
      "max": [
        1,
        1
      ],
      "min": [
        0,
        0
      ],
      "type": "VEC2"
    },
    {
      "bufferView": 3,
      "componentType": 5123,
      "count": 28380,
      "max": [
        9511
      ],
      "min": [
        0
      ],
      "type": "SCALAR"
    }
  ],
  "meshes": [
    {
      "primitives": [
        {
          "mode": 4,
          "attributes": {
            "POSITION": 0,
            "NORMAL": 1,
            "TEXCOORD_0": 2
          },
          "extras": {
            "parameters": {
              "type": "TextGeometry",
              "width": 327.2374628348476,
              "height": 120.93211576837896,
              "depth": 4.247289542345778,
              "horizontalAlign": 3,
              "verticalAlign": 2,
              "fontSize": 95,
              "lineHeight": 1.2,
              "letterSpacing": 0,
              "text": {
                "textValue": "<AP >"
              },
              "textTransform": 1,
              "font": "008bae9b-336b-4193-9c94-f77a43c9253f",
              "editable": false,
              "extrudeBevelSize": 0,
              "extrudeBevelSegments": 1
            },
            "type": "TextGeometry"
          },
          "indices": 3
        }
      ]
    }
  ],
  "extensions": {
    "KHR_lights_punctual": {
      "lights": [
        {
          "name": "Directional Light",
          "color": [
            1,
            1,
            1
          ],
          "intensity": 0.7,
          "type": "directional"
        }
      ]
    }
  },
  "extensionsUsed": [
    "KHR_lights_punctual"
  ]
}